Moderustic-ExtraBold.ufo
<glyph name="I" format="2">
  <advance width="326"/>
  <unicode hex="0049"/>
  <anchor x="163" y="719" name="top"/>
  <anchor x="163" y="-20" name="bottom"/>
  <anchor x="251" y="-3" name="ogonek"/>
  <anchor x="-50" y="500" name="topgr"/>
  <outline>
    <contour>
      <point x="68" y="0" type="line"/>
      <point x="258" y="0" type="line"/>
      <point x="258" y="700" type="line"/>
      <point x="68" y="700" type="line"/>
    </contour>
  </outline>
</glyph>
<glyph name="K" format="2">
  <advance width="670"/>
  <unicode hex="004B"/>
  <anchor x="335" y="-20" name="bottom"/>
  <anchor x="335" y="719" name="top"/>
  <outline>
    <contour>
      <point x="248" y="0" type="line"/>
      <point x="248" y="700" type="line" name="av02"/>
      <point x="58" y="700" type="line"/>
      <point x="58" y="0" type="line" name="av01"/>
    </contour>
    <contour>
      <point x="304" y="282" type="line"/>
      <point x="460" y="0" type="line"/>
      <point x="679" y="0" type="line"/>
      <point x="467" y="367" type="line"/>
      <point x="675" y="700" type="line"/>
      <point x="474" y="700" type="line"/>
      <point x="316" y="426" type="line"/>
      <point x="140" y="426" type="line"/>
      <point x="129" y="282" type="line"/>
    </contour>
  </outline>
</glyph>
<glyph name="T" format="2">
  <advance width="626"/>
  <unicode hex="0054"/>
  <anchor x="313" y="719" name="top"/>
  <anchor x="313" y="-20" name="bottom"/>
  <outline>
    <contour>
      <point x="218" y="0" type="line" name="ab01"/>
      <point x="408" y="0" type="line"/>
      <point x="408" y="560" type="line" name="sv02"/>
      <point x="616" y="560" type="line" name="sv03"/>
      <point x="616" y="700" type="line"/>
      <point x="10" y="700" type="line" name="at01"/>
      <point x="10" y="560" type="line" name="sv01"/>
      <point x="218" y="560" type="line"/>
    </contour>
  </outline>
</glyph>
<glyph name="U" format="2">
  <advance width="675"/>
  <unicode hex="0055"/>
  <anchor x="338" y="719" name="top"/>
  <anchor x="338" y="-20" name="bottom"/>
  <anchor x="454" y="-1" name="ogonek"/>
  <outline>
    <contour>
      <point x="50" y="700" type="line" name="at01"/>
      <point x="50" y="262" type="line" smooth="yes"/>
      <point x="50" y="88"/>
      <point x="158.784" y="-20"/>
      <point x="335.946" y="-20" type="curve" smooth="yes" name="dv01"/>
      <point x="513.108" y="-20"/>
      <point x="625" y="89"/>
      <point x="625" y="262" type="curve" smooth="yes"/>
      <point x="625" y="700" type="line" name="at02"/>
      <point x="435" y="700" type="line"/>
      <point x="435" y="278" type="line" smooth="yes"/>
      <point x="435" y="170"/>
      <point x="403.8" y="120"/>
      <point x="336.943" y="120" type="curve" smooth="yes" name="dv02"/>
      <point x="270.086" y="120"/>
      <point x="240" y="169"/>
      <point x="240" y="278" type="curve" smooth="yes"/>
      <point x="240" y="700" type="line"/>
    </contour>
  </outline>
</glyph>
<glyph name="Z" format="2">
  <advance width="577"/>
  <unicode hex="005A"/>
  <anchor x="300" y="719" name="top"/>
  <anchor x="290" y="-20" name="bottom"/>
  <outline>
    <contour>
      <point x="20" y="0" type="line" name="ab01"/>
      <point x="560" y="0" type="line"/>
      <point x="560" y="140" type="line" name="sv01"/>
      <point x="227" y="140" type="line"/>
      <point x="558" y="570" type="line"/>
      <point x="558" y="700" type="line" name="at01"/>
      <point x="48" y="700" type="line"/>
      <point x="48" y="560" type="line" name="sv02"/>
      <point x="351" y="560" type="line"/>
      <point x="20" y="130" type="line"/>
    </contour>
  </outline>
</glyph>
<glyph name="e" format="2">
  <advance width="570"/>
  <unicode hex="0065"/>
  <anchor x="271" y="520" name="top"/>
  <anchor x="271" y="-20" name="bottom"/>
  <anchor x="401" y="-3" name="ogonek"/>
  <outline>
    <contour>
      <point x="207" y="309" type="line" name="sv02"/>
      <point x="211" y="365.838"/>
      <point x="242.952" y="393"/>
      <point x="289.94" y="393" type="curve" smooth="yes" name="sv01"/>
      <point x="336.928" y="393"/>
      <point x="363.241" y="365.838"/>
      <point x="367" y="309" type="curve" name="dv04"/>
    </contour>
    <contour>
      <point x="436" y="158" type="line"/>
      <point x="408.358" y="133.229"/>
      <point x="358.389" y="117"/>
      <point x="306.649" y="117" type="curve" smooth="yes" name="dv02"/>
      <point x="238.619" y="117"/>
      <point x="207" y="147.667"/>
      <point x="207" y="209" type="curve" name="sv04"/>
      <point x="554" y="209" type="line" name="dv03"/>
      <point x="575.474" y="390.707"/>
      <point x="470.467" y="520"/>
      <point x="283" y="520" type="curve" smooth="yes" name="at01"/>
      <point x="129.824" y="520"/>
      <point x="20" y="419"/>
      <point x="20" y="251" type="curve" smooth="yes" name="sv03"/>
      <point x="20" y="81"/>
      <point x="134.724" y="-20"/>
      <point x="303.377" y="-20" type="curve" smooth="yes" name="dv01"/>
      <point x="401.432" y="-20"/>
      <point x="469.089" y="14"/>
      <point x="524" y="70" type="curve"/>
    </contour>
  </outline>
</glyph>
<glyph name="p" format="2">
  <advance width="632"/>
  <unicode hex="0070"/>
  <anchor x="361" y="-20" name="bottom"/>
  <anchor x="352" y="520" name="top"/>
  <outline>
    <contour>
      <point x="60" y="-200" type="line" name="av01"/>
      <point x="250" y="-200" type="line"/>
      <point x="250" y="500" type="line" name="av02"/>
      <point x="60" y="500" type="line"/>
    </contour>
    <contour>
      <point x="373" y="-20" type="curve" smooth="yes" name="dv01"/>
      <point x="509" y="-20"/>
      <point x="593" y="99"/>
      <point x="593" y="255" type="curve" smooth="yes"/>
      <point x="593" y="411"/>
      <point x="523" y="520"/>
      <point x="385" y="520" type="curve" smooth="yes" name="at01"/>
      <point x="270" y="520"/>
      <point x="213" y="428"/>
      <point x="213" y="255" type="curve" smooth="yes"/>
      <point x="213" y="82"/>
      <point x="271" y="-20"/>
    </contour>
    <contour>
      <point x="322" y="116" type="curve" smooth="yes" name="dv02"/>
      <point x="277" y="116"/>
      <point x="250" y="168"/>
      <point x="250" y="255" type="curve" smooth="yes"/>
      <point x="250" y="335"/>
      <point x="278" y="383"/>
      <point x="326" y="383" type="curve" smooth="yes" name="sv01"/>
      <point x="374" y="383"/>
      <point x="403" y="334"/>
      <point x="403" y="254" type="curve" smooth="yes"/>
      <point x="403" y="167"/>
      <point x="373" y="116"/>
    </contour>
  </outline>
</glyph>
<glyph name="s" format="2">
  <advance width="487"/>
  <unicode hex="0073"/>
  <anchor x="243" y="520" name="top"/>
  <anchor x="243" y="-20" name="bottom"/>
  <outline>
    <contour>
      <point x="22" y="70" type="line"/>
      <point x="76" y="16"/>
      <point x="153" y="-20"/>
      <point x="248" y="-20" type="curve" smooth="yes"/>
      <point x="375" y="-20"/>
      <point x="463" y="45"/>
      <point x="463" y="148" type="curve" smooth="yes"/>
      <point x="463" y="231"/>
      <point x="405.994" y="284.977"/>
      <point x="287" y="314" type="curve" smooth="yes"/>
      <point x="241.994" y="324.977"/>
      <point x="220" y="336"/>
      <point x="220" y="357" type="curve" smooth="yes"/>
      <point x="220" y="374"/>
      <point x="236" y="390"/>
      <point x="267" y="390" type="curve" smooth="yes"/>
      <point x="302" y="390"/>
      <point x="344" y="369"/>
      <point x="368" y="342" type="curve"/>
      <point x="456" y="430" type="line"/>
      <point x="402" y="484"/>
      <point x="335" y="520"/>
      <point x="242" y="520" type="curve" smooth="yes"/>
      <point x="110" y="520"/>
      <point x="30" y="448"/>
      <point x="30" y="352" type="curve" smooth="yes"/>
      <point x="30" y="268"/>
      <point x="90.945" y="211.72"/>
      <point x="198" y="191" type="curve" smooth="yes"/>
      <point x="245.947" y="181.72"/>
      <point x="273" y="168"/>
      <point x="273" y="143" type="curve" smooth="yes"/>
      <point x="273" y="121"/>
      <point x="252" y="110"/>
      <point x="220" y="110" type="curve" smooth="yes"/>
      <point x="176" y="110"/>
      <point x="134" y="131"/>
      <point x="110" y="158" type="curve"/>
    </contour>
  </outline>
</glyph>
<glyph name="braceright" format="2">
  <advance width="366"/>
  <unicode hex="007D"/>
  <outline>
    <contour>
      <point x="52" y="-336" type="line"/>
      <point x="188" y="-268.35"/>
      <point x="254" y="-174.229"/>
      <point x="254" y="-75.205" type="curve" smooth="yes"/>
      <point x="254" y="165" type="line" smooth="yes"/>
      <point x="254" y="236"/>
      <point x="312" y="272"/>
      <point x="344" y="282" type="curve"/>
      <point x="344" y="299" type="line"/>
      <point x="292" y="310"/>
      <point x="254" y="372"/>
      <point x="254" y="422" type="curve" smooth="yes"/>
      <point x="254" y="604.027" type="line" smooth="yes"/>
      <point x="254" y="700.154"/>
      <point x="188" y="803.439"/>
      <point x="52" y="874" type="curve"/>
      <point x="28" y="811" type="line"/>
      <point x="70" y="779.167"/>
      <point x="98" y="732.957"/>
      <point x="98" y="609.731" type="curve" smooth="yes"/>
      <point x="98" y="429" type="line" smooth="yes"/>
      <point x="98" y="365"/>
      <point x="120" y="315"/>
      <point x="224" y="289" type="curve"/>
      <point x="117" y="261"/>
      <point x="98" y="203"/>
      <point x="98" y="139" type="curve" smooth="yes"/>
      <point x="98" y="-82.621" type="line" smooth="yes"/>
      <point x="98" y="-201.73"/>
      <point x="70" y="-242.735"/>
      <point x="28" y="-273" type="curve"/>
    </contour>
  </outline>
</glyph>
<glyph name="threesuperior" format="2">
  <advance width="422"/>
  <unicode hex="00B3"/>
  <outline>
    <contour>
      <point x="37" y="408" type="line"/>
      <point x="79" y="363"/>
      <point x="137" y="339"/>
      <point x="215" y="339" type="curve" smooth="yes"/>
      <point x="326" y="339"/>
      <point x="384" y="388"/>
      <point x="384" y="473" type="curve" smooth="yes"/>
      <point x="384" y="560"/>
      <point x="324" y="609"/>
      <point x="149" y="609" type="curve"/>
      <point x="149" y="539" type="line"/>
      <point x="221" y="539"/>
      <point x="253" y="506"/>
      <point x="253" y="474" type="curve" smooth="yes"/>
      <point x="253" y="449"/>
      <point x="233" y="435"/>
      <point x="201" y="435" type="curve" smooth="yes"/>
      <point x="168" y="435"/>
      <point x="137" y="450"/>
      <point x="112" y="483" type="curve"/>
    </contour>
    <contour>
      <point x="149" y="573" type="line"/>
      <point x="302" y="573"/>
      <point x="368" y="627"/>
      <point x="368" y="703" type="curve" smooth="yes"/>
      <point x="368" y="772"/>
      <point x="314" y="832"/>
      <point x="211" y="832" type="curve" smooth="yes"/>
      <point x="137" y="832"/>
      <point x="79" y="801"/>
      <point x="56" y="777" type="curve"/>
      <point x="131" y="702" type="line"/>
      <point x="153" y="726"/>
      <point x="175" y="736"/>
      <point x="196" y="736" type="curve" smooth="yes"/>
      <point x="219" y="736"/>
      <point x="235" y="724"/>
      <point x="235" y="702" type="curve" smooth="yes"/>
      <point x="235" y="674"/>
      <point x="211" y="643"/>
      <point x="149" y="643" type="curve"/>
    </contour>
  </outline>
</glyph>
<glyph name="eth" format="2">
  <advance width="578"/>
  <unicode hex="00F0"/>
  <outline>
    <contour>
      <point x="558" y="278.798" type="curve" smooth="yes"/>
      <point x="558" y="530.609"/>
      <point x="342.95" y="695.516"/>
      <point x="143" y="778" type="curve"/>
      <point x="89.478" y="656.441" type="line"/>
      <point x="187.114" y="622.419"/>
      <point x="344.14" y="538.937"/>
      <point x="390.094" y="424.354" type="curve"/>
      <point x="359.401" y="454.703"/>
      <point x="314.178" y="471"/>
      <point x="260.387" y="471" type="curve" smooth="yes"/>
      <point x="123.696" y="471"/>
      <point x="20" y="367"/>
      <point x="20" y="225" type="curve" smooth="yes"/>
      <point x="20" y="81"/>
      <point x="128.95" y="-20"/>
      <point x="287.072" y="-20" type="curve" smooth="yes"/>
      <point x="448.086" y="-20"/>
      <point x="558" y="92.314"/>
    </contour>
    <contour>
      <point x="287.225" y="114" type="curve" smooth="yes"/>
      <point x="235.742" y="114"/>
      <point x="210" y="154"/>
      <point x="210" y="222" type="curve" smooth="yes"/>
      <point x="210" y="293"/>
      <point x="238.404" y="337"/>
      <point x="291.663" y="337" type="curve" smooth="yes"/>
      <point x="338.708" y="337"/>
      <point x="368" y="302"/>
      <point x="368" y="228" type="curve" smooth="yes"/>
      <point x="368" y="153"/>
      <point x="338.708" y="114"/>
    </contour>
    <contour>
      <point x="269.023" y="642.015" type="line"/>
      <point x="99" y="585" type="line"/>
      <point x="136" y="490" type="line"/>
      <point x="307.116" y="571.044" type="line"/>
      <point x="477" y="631" type="line"/>
      <point x="440" y="726" type="line"/>
    </contour>
  </outline>
</glyph>
<glyph name="thorn" format="2">
  <advance width="635"/>
  <unicode hex="00FE"/>
  <outline>
    <contour>
      <point x="60" y="-200" type="line" name="av01"/>
      <point x="250" y="-200" type="line"/>
      <point x="250" y="61.34" type="line"/>
      <point x="277.26" y="8.66"/>
      <point x="318.95" y="-20"/>
      <point x="373" y="-20" type="curve" smooth="yes" name="dv01"/>
      <point x="509" y="-20"/>
      <point x="593" y="99"/>
      <point x="593" y="255" type="curve" smooth="yes"/>
      <point x="593" y="411"/>
      <point x="523" y="520"/>
      <point x="385" y="520" type="curve" smooth="yes" name="at01"/>
      <point x="323.42" y="520"/>
      <point x="278.47" y="493.61"/>
      <point x="250" y="442.54" type="curve"/>
      <point x="249.55" y="750" type="line"/>
      <point x="60.25" y="750" type="line"/>
    </contour>
    <contour>
      <point x="322" y="116" type="curve" smooth="yes" name="dv02"/>
      <point x="277" y="116"/>
      <point x="250" y="168"/>
      <point x="250" y="255" type="curve" smooth="yes"/>
      <point x="250" y="335"/>
      <point x="278" y="383"/>
      <point x="326" y="383" type="curve" smooth="yes" name="sv01"/>
      <point x="374" y="383"/>
      <point x="403" y="334"/>
      <point x="403" y="254" type="curve" smooth="yes"/>
      <point x="403" y="167"/>
      <point x="373" y="116"/>
    </contour>
  </outline>
</glyph>
<glyph name="ogonek" format="2">
  <advance width="209"/>
  <unicode hex="02DB"/>
  <outline>
    <contour>
      <point x="207" y="-180" type="line"/>
      <point x="164.672" y="-166"/>
      <point x="144" y="-135"/>
      <point x="144" y="-101" type="curve" smooth="yes"/>
      <point x="144" y="-64"/>
      <point x="167.619" y="-21"/>
      <point x="206" y="3" type="curve"/>
      <point x="146.709" y="6" type="line"/>
      <point x="50.236" y="-11"/>
      <point x="2" y="-50"/>
      <point x="2" y="-102" type="curve" smooth="yes"/>
      <point x="2" y="-155"/>
      <point x="53.25" y="-193"/>
      <point x="132.637" y="-203" type="curve"/>
    </contour>
  </outline>
</glyph>
<glyph name="caroncomb" format="2">
  <advance width="346"/>
  <unicode hex="030C"/>
  <anchor x="173" y="702" name="top"/>
  <anchor x="173" y="500" name="_top"/>
  <outline>
    <contour>
      <point x="114" y="550" type="line"/>
      <point x="232" y="550" type="line"/>
      <point x="334" y="701" type="line"/>
      <point x="215" y="701" type="line"/>
      <point x="173" y="629" type="line"/>
      <point x="131" y="701" type="line"/>
      <point x="12" y="701" type="line"/>
    </contour>
  </outline>
</glyph>
<glyph name="numeral-greek" format="2">
  <advance width="243"/>
  <unicode hex="0374"/>
  <outline>
    <contour>
      <point x="6" y="498" type="line"/>
      <point x="157" y="498" type="line"/>
      <point x="236" y="715" type="line"/>
      <point x="127" y="715" type="line"/>
    </contour>
  </outline>
</glyph>
<glyph name="questiongreek" format="2">
  <advance width="277"/>
  <unicode hex="037E"/>
  <outline>
    <component base="period" xOffset="8" yOffset="381"/>
    <contour>
      <point x="-32" y="-149" type="line"/>
      <point x="136" y="-149" type="line"/>
      <point x="208" y="119" type="line"/>
      <point x="77" y="119" type="line"/>
    </contour>
  </outline>
</glyph>
<glyph name="Sigma" format="2">
  <advance width="570"/>
  <unicode hex="03A3"/>
  <outline>
    <contour>
      <point x="31" y="0" type="line"/>
      <point x="528" y="0" type="line"/>
      <point x="528" y="140" type="line"/>
      <point x="284" y="140" type="line"/>
      <point x="473" y="350" type="line"/>
      <point x="284" y="560" type="line"/>
      <point x="528" y="560" type="line"/>
      <point x="528" y="700" type="line"/>
      <point x="31" y="700" type="line"/>
      <point x="31" y="580" type="line"/>
      <point x="238" y="350" type="line"/>
      <point x="31" y="120" type="line"/>
    </contour>
  </outline>
</glyph>
<glyph name="iota" format="2">
  <advance width="300"/>
  <unicode hex="03B9"/>
  <anchor x="137" y="520" name="topgr"/>
  <outline>
    <contour>
      <point x="289" y="133" type="line"/>
      <point x="252" y="133"/>
      <point x="233" y="148"/>
      <point x="233" y="210" type="curve" smooth="yes"/>
      <point x="233" y="500" type="line"/>
      <point x="43" y="500" type="line"/>
      <point x="43" y="153" type="line" smooth="yes"/>
      <point x="43" y="47"/>
      <point x="97" y="0"/>
      <point x="216" y="0" type="curve" smooth="yes"/>
      <point x="289" y="0" type="line"/>
    </contour>
  </outline>
</glyph>
<glyph name="phi" format="2">
  <advance width="712"/>
  <unicode hex="03C6"/>
  <anchor x="356" y="520" name="topgr"/>
  <outline>
    <contour>
      <point x="266" y="-200" type="line"/>
      <point x="443" y="-200" type="line"/>
      <point x="443" y="-19" type="line"/>
      <point x="597" y="-7"/>
      <point x="692" y="90"/>
      <point x="692" y="250" type="curve" smooth="yes"/>
      <point x="692" y="416"/>
      <point x="593.389" y="520"/>
      <point x="436.597" y="520" type="curve" smooth="yes"/>
      <point x="325.167" y="520"/>
      <point x="266" y="460"/>
      <point x="266" y="346" type="curve" smooth="yes"/>
      <point x="266" y="114" type="line"/>
      <point x="226.4" y="131"/>
      <point x="200" y="181"/>
      <point x="200" y="256" type="curve" smooth="yes"/>
      <point x="200" y="304"/>
      <point x="209.258" y="351"/>
      <point x="241" y="391" type="curve"/>
      <point x="132" y="500" type="line"/>
      <point x="63" y="452"/>
      <point x="20" y="369"/>
      <point x="20" y="251" type="curve" smooth="yes"/>
      <point x="20" y="87"/>
      <point x="117" y="-10"/>
      <point x="266" y="-19" type="curve"/>
    </contour>
    <contour>
      <point x="443" y="111" type="curve"/>
      <point x="443" y="391" type="line"/>
      <point x="445.41" y="390.326"/>
      <point x="447.767" y="389.536"/>
      <point x="450.069" y="388.63" type="curve" smooth="yes"/>
      <point x="488.769" y="373.409"/>
      <point x="512" y="325.676"/>
      <point x="512" y="253" type="curve" smooth="yes"/>
      <point x="512" y="174"/>
      <point x="484.731" y="125"/>
    </contour>
  </outline>
</glyph>
<glyph name="Djecyr" format="2">
  <advance width="770"/>
  <unicode hex="0402"/>
  <outline>
    <contour>
      <point x="351.5" y="0" type="line"/>
      <point x="351.5" y="180" type="line" smooth="yes"/>
      <point x="351.5" y="256"/>
      <point x="394.729" y="331"/>
      <point x="461.08" y="331" type="curve" smooth="yes"/>
      <point x="513.356" y="331"/>
      <point x="540.5" y="285.787"/>
      <point x="540.5" y="208.422" type="curve" smooth="yes"/>
      <point x="540.5" y="150.147"/>
      <point x="524.411" y="119"/>
      <point x="494.244" y="119" type="curve" smooth="yes" name="dv02"/>
      <point x="484.189" y="119"/>
      <point x="469.106" y="122.25"/>
      <point x="450" y="132" type="curve"/>
      <point x="413" y="2" type="line"/>
      <point x="459.926" y="-12"/>
      <point x="472.906" y="-21"/>
      <point x="513.841" y="-21" type="curve" smooth="yes" name="dv01"/>
      <point x="650.626" y="-21"/>
      <point x="730.5" y="78"/>
      <point x="730.5" y="221" type="curve" smooth="yes"/>
      <point x="730.5" y="359"/>
      <point x="656.704" y="466"/>
      <point x="519.084" y="466" type="curve" smooth="yes"/>
      <point x="433.32" y="466"/>
      <point x="383.458" y="424"/>
      <point x="351.5" y="380" type="curve"/>
      <point x="351.5" y="560" type="line"/>
      <point x="564" y="560" type="line"/>
      <point x="564" y="700" type="line"/>
      <point x="21" y="700" type="line"/>
      <point x="21" y="560" type="line"/>
      <point x="162" y="560" type="line"/>
      <point x="161.5" y="0" type="line"/>
    </contour>
  </outline>
</glyph>
<glyph name="Ucyr" format="2">
  <advance width="612"/>
  <unicode hex="0423"/>
  <anchor x="306" y="719" name="top"/>
  <anchor x="317" y="-20" name="bottom"/>
  <outline>
    <contour>
      <point x="81" y="-90" type="line"/>
      <point x="230" y="-90"/>
      <point x="333" y="-54"/>
      <point x="366" y="36" type="curve" smooth="yes"/>
      <point x="608" y="700" type="line"/>
      <point x="406" y="700" type="line"/>
      <point x="227" y="150" type="line" smooth="yes"/>
      <point x="207.327" y="89.552"/>
      <point x="154" y="50"/>
      <point x="81" y="50" type="curve"/>
    </contour>
    <contour>
      <point x="196" y="138" type="line"/>
      <point x="247" y="138" type="line"/>
      <point x="374" y="142" type="line"/>
      <point x="203" y="700" type="line"/>
      <point x="2" y="700" type="line"/>
    </contour>
  </outline>
</glyph>
<glyph name="Tsecyr" format="2">
  <advance width="760"/>
  <unicode hex="0426"/>
  <outline>
    <contour>
      <point x="68" y="0" type="line"/>
      <point x="530" y="0" type="line" smooth="yes"/>
      <point x="601" y="0"/>
      <point x="593" y="-42"/>
      <point x="593" y="-140" type="curve"/>
      <point x="739" y="-140" type="line"/>
      <point x="739" y="112"/>
      <point x="707" y="140"/>
      <point x="607" y="140" type="curve"/>
      <point x="607" y="701" type="line"/>
      <point x="416" y="701" type="line"/>
      <point x="416" y="140" type="line"/>
      <point x="259" y="140" type="line"/>
      <point x="259" y="701" type="line"/>
      <point x="68" y="701" type="line"/>
    </contour>
  </outline>
</glyph>
<glyph name="Shchacyr" format="2">
  <advance width="1060"/>
  <unicode hex="0429"/>
  <outline>
    <contour>
      <point x="831" y="0" type="line" smooth="yes"/>
      <point x="902" y="0"/>
      <point x="894" y="-42"/>
      <point x="894" y="-140" type="curve"/>
      <point x="1039" y="-140" type="line"/>
      <point x="1039" y="112"/>
      <point x="1006" y="140"/>
      <point x="906" y="140" type="curve"/>
      <point x="906" y="700" type="line"/>
      <point x="715" y="700" type="line"/>
      <point x="715" y="140" type="line"/>
      <point x="582" y="140" type="line"/>
      <point x="582" y="700" type="line"/>
      <point x="392" y="700" type="line"/>
      <point x="392" y="140" type="line"/>
      <point x="259" y="140" type="line"/>
      <point x="259" y="700" type="line"/>
      <point x="68" y="700" type="line"/>
      <point x="68" y="0" type="line"/>
    </contour>
  </outline>
</glyph>
<glyph name="Hardcyr" format="2">
  <advance width="735"/>
  <unicode hex="042A"/>
  <outline>
    <contour>
      <point x="21" y="559" type="line"/>
      <point x="194" y="559" type="line"/>
      <point x="227" y="694" type="line"/>
      <point x="227" y="700" type="line"/>
      <point x="21" y="700" type="line"/>
    </contour>
    <contour>
      <point x="170" y="0" type="line"/>
      <point x="445" y="0" type="line" smooth="yes"/>
      <point x="606" y="0"/>
      <point x="696" y="97.143"/>
      <point x="696" y="233.978" type="curve" smooth="yes"/>
      <point x="696" y="369.768"/>
      <point x="606" y="469"/>
      <point x="445" y="469" type="curve" smooth="yes"/>
      <point x="361" y="469" type="line"/>
      <point x="361" y="700" type="line"/>
      <point x="170" y="700" type="line"/>
    </contour>
    <contour>
      <point x="361" y="140" type="line"/>
      <point x="361" y="328" type="line"/>
      <point x="386" y="328" type="line" smooth="yes"/>
      <point x="458" y="328"/>
      <point x="505" y="308.81"/>
      <point x="505" y="234.952" type="curve" smooth="yes"/>
      <point x="505" y="159.976"/>
      <point x="458" y="140"/>
      <point x="386" y="140" type="curve" smooth="yes"/>
    </contour>
  </outline>
</glyph>
<glyph name="decyr" format="2">
  <advance width="760"/>
  <unicode hex="0434"/>
  <anchor x="399" y="-20" name="bottom"/>
  <anchor x="400" y="520" name="top"/>
  <outline>
    <contour>
      <point x="150" y="-140" type="line"/>
      <point x="151" y="-107"/>
      <point x="137" y="0"/>
      <point x="196" y="0" type="curve" smooth="yes"/>
      <point x="558" y="0" type="line" smooth="yes"/>
      <point x="629" y="0"/>
      <point x="610" y="-102"/>
      <point x="610" y="-140" type="curve"/>
      <point x="749" y="-140" type="line"/>
      <point x="749" y="75"/>
      <point x="728" y="139"/>
      <point x="628" y="139" type="curve"/>
      <point x="628" y="500" type="line"/>
      <point x="182" y="500" type="line"/>
      <point x="182" y="327" type="line" smooth="yes"/>
      <point x="182" y="192"/>
      <point x="169" y="170"/>
      <point x="145" y="141" type="curve"/>
      <point x="45" y="141"/>
      <point x="11" y="80"/>
      <point x="11" y="-140" type="curve"/>
    </contour>
    <contour>
      <point x="279" y="140" type="line"/>
      <point x="354.359" y="152.56"/>
      <point x="368" y="183.758"/>
      <point x="368" y="360" type="curve"/>
      <point x="438" y="360" type="line"/>
      <point x="438" y="140" type="line"/>
    </contour>
  </outline>
</glyph>
<glyph name="emcyr" format="2">
  <advance width="689"/>
  <unicode hex="043C"/>
  <outline>
    <contour>
      <point x="43" y="0" type="line"/>
      <point x="223" y="0" type="line"/>
      <point x="223" y="242" type="line"/>
      <point x="317" y="80" type="line"/>
      <point x="373" y="80" type="line"/>
      <point x="467" y="242" type="line"/>
      <point x="467" y="0" type="line"/>
      <point x="647" y="0" type="line"/>
      <point x="647" y="500" type="line"/>
      <point x="477" y="500" type="line"/>
      <point x="345" y="262" type="line"/>
      <point x="213" y="500" type="line"/>
      <point x="43" y="500" type="line"/>
    </contour>
  </outline>
</glyph>
<glyph name="five.superior" format="2">
  <advance width="420"/>
  <unicode hex="2075"/>
  <outline>
    <contour>
      <point x="31" y="422" type="line"/>
      <point x="79" y="369"/>
      <point x="117" y="339"/>
      <point x="201" y="339" type="curve" smooth="yes"/>
      <point x="327" y="339"/>
      <point x="405" y="407"/>
      <point x="405" y="508" type="curve" smooth="yes"/>
      <point x="405" y="602"/>
      <point x="338" y="662"/>
      <point x="252" y="662" type="curve" smooth="yes"/>
      <point x="225" y="662"/>
      <point x="205" y="656"/>
      <point x="192" y="645" type="curve"/>
      <point x="206" y="736" type="line"/>
      <point x="373" y="736" type="line"/>
      <point x="383" y="831" type="line"/>
      <point x="90" y="831" type="line"/>
      <point x="43" y="518" type="line"/>
      <point x="112" y="553"/>
      <point x="163" y="573"/>
      <point x="205" y="573" type="curve" smooth="yes"/>
      <point x="251" y="573"/>
      <point x="273" y="548"/>
      <point x="273" y="507" type="curve" smooth="yes"/>
      <point x="273" y="465"/>
      <point x="251" y="435"/>
      <point x="200" y="435" type="curve" smooth="yes"/>
      <point x="158" y="435"/>
      <point x="136" y="455"/>
      <point x="103" y="494" type="curve"/>
    </contour>
  </outline>
</glyph>
<glyph name="six.superior" format="2">
  <advance width="450"/>
  <unicode hex="2076"/>
  <outline>
    <contour>
      <point x="222" y="433" type="curve" smooth="yes"/>
      <point x="185" y="433"/>
      <point x="165" y="455"/>
      <point x="165" y="496" type="curve" smooth="yes"/>
      <point x="165" y="541"/>
      <point x="188" y="567"/>
      <point x="227" y="567" type="curve" smooth="yes"/>
      <point x="264" y="567"/>
      <point x="284" y="544"/>
      <point x="284" y="503" type="curve" smooth="yes"/>
      <point x="284" y="459"/>
      <point x="262" y="433"/>
    </contour>
    <contour>
      <point x="394" y="777" type="line"/>
      <point x="371" y="801"/>
      <point x="313" y="832"/>
      <point x="239" y="832" type="curve" smooth="yes"/>
      <point x="112" y="832"/>
      <point x="34" y="740"/>
      <point x="34" y="582" type="curve" smooth="yes"/>
      <point x="34" y="417"/>
      <point x="119" y="337"/>
      <point x="233" y="337" type="curve" smooth="yes"/>
      <point x="340" y="337"/>
      <point x="416" y="408"/>
      <point x="416" y="506" type="curve" smooth="yes"/>
      <point x="416" y="599"/>
      <point x="348" y="657"/>
      <point x="255" y="657" type="curve" smooth="yes"/>
      <point x="203" y="657"/>
      <point x="157" y="639"/>
      <point x="135" y="591" type="curve"/>
      <point x="135" y="684"/>
      <point x="164" y="736"/>
      <point x="234" y="736" type="curve" smooth="yes"/>
      <point x="267" y="736"/>
      <point x="293" y="724"/>
      <point x="319" y="702" type="curve"/>
    </contour>
  </outline>
</glyph>
<glyph name="product" format="2">
  <advance width="766"/>
  <unicode hex="220F"/>
  <outline>
    <contour>
      <point x="68" y="-125.365" type="line"/>
      <point x="258" y="-125.365" type="line"/>
      <point x="258" y="560" type="line"/>
      <point x="508" y="560" type="line"/>
      <point x="508" y="-125.365" type="line"/>
      <point x="698" y="-125.365" type="line"/>
      <point x="698" y="700" type="line"/>
      <point x="68" y="700" type="line"/>
    </contour>
  </outline>
</glyph>
<glyph name="summation" format="2">
  <advance width="662"/>
  <unicode hex="2211"/>
  <outline>
    <contour>
      <point x="30" y="-126" type="line"/>
      <point x="621" y="-126" type="line"/>
      <point x="621" y="14" type="line"/>
      <point x="299" y="14" type="line"/>
      <point x="567" y="288" type="line"/>
      <point x="299" y="560" type="line"/>
      <point x="621" y="560" type="line"/>
      <point x="621" y="700" type="line"/>
      <point x="30" y="700" type="line"/>
      <point x="30" y="581" type="line"/>
      <point x="315" y="289" type="line"/>
      <point x="30" y="-5" type="line"/>
    </contour>
  </outline>
</glyph>
<glyph name="Eng.ss07" format="2">
  <advance width="732"/>
  <anchor x="366" y="719" name="top"/>
  <anchor x="348" y="-214" name="bottom"/>
  <outline>
    <contour>
      <point x="58" y="0" type="line"/>
      <point x="248" y="0" type="line" name="ab01"/>
      <point x="248" y="379" type="line" name="iv01"/>
      <point x="494" y="0" type="line" name="ab02"/>
      <point x="673.75" y="134.045" type="line"/>
      <point x="674" y="700" type="line" name="at01"/>
      <point x="484" y="700" type="line"/>
      <point x="484" y="321" type="line" name="iv02"/>
      <point x="238" y="700" type="line" name="at02"/>
      <point x="58" y="700" type="line"/>
    </contour>
    <contour>
      <point x="354" y="-224" type="line"/>
      <point x="589" y="-224"/>
      <point x="674.215" y="-141"/>
      <point x="674" y="88" type="curve" smooth="yes"/>
      <point x="673.5" y="620" type="line"/>
      <point x="483.75" y="620" type="line"/>
      <point x="483.75" y="74" type="line" smooth="yes"/>
      <point x="483.75" y="-63"/>
      <point x="443" y="-84"/>
      <point x="354" y="-84" type="curve"/>
    </contour>
  </outline>
</glyph>
<glyph name="J.ss07" format="2">
  <advance width="380"/>
  <anchor x="235" y="719" name="top"/>
  <anchor x="152" y="-109" name="bottom"/>
  <outline>
    <contour>
      <point x="10" y="-144" type="line"/>
      <point x="245" y="-144"/>
      <point x="330" y="-61"/>
      <point x="330" y="168" type="curve"/>
      <point x="329.5" y="700" type="line"/>
      <point x="139.5" y="700" type="line"/>
      <point x="139.5" y="154" type="line" smooth="yes"/>
      <point x="139.5" y="17"/>
      <point x="99" y="-4"/>
      <point x="10" y="-4" type="curve"/>
    </contour>
  </outline>
</glyph>
<glyph name="J.ss12" format="2">
  <advance width="480"/>
  <anchor x="337" y="719" name="top"/>
  <anchor x="199" y="-20" name="bottom"/>
  <outline>
    <contour>
      <point x="9" y="22" type="line"/>
      <point x="55.944" y="-4"/>
      <point x="113.875" y="-20"/>
      <point x="202.77" y="-20" type="curve" smooth="yes"/>
      <point x="349.595" y="-20"/>
      <point x="429.5" y="76"/>
      <point x="429.5" y="252" type="curve" smooth="yes"/>
      <point x="429.5" y="700" type="line"/>
      <point x="239.5" y="700" type="line"/>
      <point x="239.5" y="262" type="line" smooth="yes"/>
      <point x="239.5" y="155"/>
      <point x="222.46" y="120"/>
      <point x="172.344" y="120" type="curve" smooth="yes"/>
      <point x="122.228" y="120"/>
      <point x="80.13" y="128"/>
      <point x="24" y="150" type="curve"/>
    </contour>
  </outline>
</glyph>
<glyph name="a.ss10" format="2">
  <advance width="558"/>
  <anchor x="274" y="520" name="top"/>
  <anchor x="274" y="-20" name="bottom"/>
  <anchor x="486" y="-3" name="ogonek"/>
  <outline>
    <contour>
      <point x="493" y="-10" type="line"/>
      <point x="493" y="352" type="line" smooth="yes"/>
      <point x="493" y="458"/>
      <point x="405.941" y="520"/>
      <point x="268.535" y="520" type="curve" smooth="yes"/>
      <point x="160.499" y="520"/>
      <point x="64" y="482"/>
      <point x="30" y="430" type="curve"/>
      <point x="73" y="280" type="line"/>
      <point x="138.948" y="383"/>
      <point x="210.415" y="390"/>
      <point x="240.876" y="390" type="curve" smooth="yes"/>
      <point x="292.426" y="390"/>
      <point x="310" y="369"/>
      <point x="310" y="338" type="curve" smooth="yes"/>
      <point x="310" y="302"/>
      <point x="288.471" y="286"/>
      <point x="222.86" y="286" type="curve" smooth="yes"/>
      <point x="100.863" y="286"/>
      <point x="25" y="231"/>
      <point x="25" y="137" type="curve" smooth="yes"/>
      <point x="25" y="44"/>
      <point x="97.738" y="-20"/>
      <point x="196.087" y="-20" type="curve" smooth="yes"/>
      <point x="286.241" y="-20"/>
      <point x="318" y="34"/>
      <point x="338" y="111" type="curve"/>
      <point x="310" y="192" type="line"/>
      <point x="310" y="139"/>
      <point x="294.489" y="105"/>
      <point x="250.341" y="105" type="curve" smooth="yes"/>
      <point x="219.318" y="105"/>
      <point x="205" y="125.864"/>
      <point x="205" y="146.727" type="curve" smooth="yes"/>
      <point x="205" y="166.364"/>
      <point x="218.25" y="186"/>
      <point x="250.773" y="186" type="curve" smooth="yes"/>
      <point x="276.068" y="186"/>
      <point x="297.75" y="196"/>
      <point x="310" y="217" type="curve"/>
      <point x="310" y="73" type="line"/>
    </contour>
  </outline>
</glyph>
<glyph name="austral.osf" format="2">
  <advance width="718"/>
  <outline>
    <contour>
      <point x="13" y="103" type="line"/>
      <point x="705" y="103" type="line"/>
      <point x="705" y="163" type="line"/>
      <point x="13" y="163" type="line"/>
    </contour>
    <contour>
      <point x="13" y="214" type="line"/>
      <point x="705" y="214" type="line"/>
      <point x="705" y="274" type="line"/>
      <point x="13" y="274" type="line"/>
    </contour>
    <contour>
      <point x="65" y="0" type="line"/>
      <point x="257" y="0" type="line"/>
      <point x="359" y="412" type="line"/>
      <point x="461" y="0" type="line"/>
      <point x="653" y="0" type="line"/>
      <point x="471" y="540" type="line"/>
      <point x="247" y="540" type="line"/>
    </contour>
  </outline>
</glyph>
<glyph name="bracketleft.case" format="2">
  <advance width="420"/>
  <outline>
    <contour>
      <point x="67" y="-157" type="line"/>
      <point x="397" y="-157" type="line"/>
      <point x="397" y="-37" type="line"/>
      <point x="242" y="-37" type="line"/>
      <point x="242" y="718" type="line"/>
      <point x="397" y="718" type="line"/>
      <point x="397" y="838" type="line"/>
      <point x="67" y="838" type="line"/>
    </contour>
  </outline>
</glyph>
<glyph name="djecyr.ss11" format="2">
  <advance width="647"/>
  <outline>
    <contour>
      <point x="71" y="0" type="line"/>
      <point x="261" y="0" type="line"/>
      <point x="261" y="700" type="line"/>
      <point x="71" y="700" type="line"/>
    </contour>
    <contour>
      <point x="261" y="197" type="line" name="iv01"/>
      <point x="261" y="293.18"/>
      <point x="281" y="360"/>
      <point x="336" y="360" type="curve" smooth="yes" name="sv01"/>
      <point x="376" y="360"/>
      <point x="398" y="324.804"/>
      <point x="398" y="247.374" type="curve" smooth="yes"/>
      <point x="398" y="0" type="line" name="ab01"/>
      <point x="588" y="0" type="line"/>
      <point x="588" y="294" type="line" smooth="yes"/>
      <point x="588" y="438"/>
      <point x="524" y="500"/>
      <point x="430" y="500" type="curve" smooth="yes" name="at01"/>
      <point x="339" y="500"/>
      <point x="270" y="441"/>
      <point x="243" y="340" type="curve"/>
      <point x="245" y="262" type="line"/>
    </contour>
    <contour>
      <point x="11" y="575" type="line"/>
      <point x="410" y="575" type="line"/>
      <point x="410" y="621" type="line"/>
      <point x="11" y="621" type="line"/>
    </contour>
    <contour>
      <point x="266" y="-198" type="line"/>
      <point x="313" y="-212"/>
      <point x="337" y="-221"/>
      <point x="405" y="-221" type="curve" smooth="yes" name="dv01"/>
      <point x="524" y="-221"/>
      <point x="588" y="-174"/>
      <point x="588" y="-68" type="curve" smooth="yes"/>
      <point x="588" y="254" type="line"/>
      <point x="398" y="254" type="line" name="av01"/>
      <point x="398" y="3" type="line" smooth="yes"/>
      <point x="398" y="-63"/>
      <point x="392" y="-85"/>
      <point x="353" y="-85" type="curve" smooth="yes" name="dv02"/>
      <point x="338" y="-85"/>
      <point x="322" y="-82"/>
      <point x="303" y="-73" type="curve"/>
    </contour>
  </outline>
</glyph>
<glyph name="eogonek.ss09" format="2">
  <advance width="595"/>
  <anchor x="300" y="520" name="top"/>
  <anchor x="300" y="-20" name="bottom"/>
  <outline>
    <contour>
      <point x="219" y="328" type="line"/>
      <point x="219" y="365"/>
      <point x="253.43" y="390"/>
      <point x="303.051" y="390" type="curve" smooth="yes"/>
      <point x="348.62" y="390"/>
      <point x="379" y="366"/>
      <point x="379" y="328" type="curve"/>
    </contour>
    <contour>
      <point x="571" y="228" type="line"/>
      <point x="582" y="417.79"/>
      <point x="470.318" y="520"/>
      <point x="309" y="520" type="curve" smooth="yes"/>
      <point x="140.4" y="520"/>
      <point x="28" y="414"/>
      <point x="28" y="255" type="curve" smooth="yes"/>
      <point x="28" y="90"/>
      <point x="141.223" y="-20"/>
      <point x="311.058" y="-20" type="curve" smooth="yes"/>
      <point x="451.583" y="-20"/>
      <point x="542.925" y="47"/>
      <point x="563" y="167" type="curve"/>
      <point x="380" y="167" type="line"/>
      <point x="377.975" y="132"/>
      <point x="351.648" y="110"/>
      <point x="310.132" y="110" type="curve" smooth="yes"/>
      <point x="246.34" y="110"/>
      <point x="219" y="146"/>
      <point x="219" y="228" type="curve"/>
    </contour>
    <contour>
      <point x="431" y="-183" type="line"/>
      <point x="388.672" y="-169"/>
      <point x="368" y="-138"/>
      <point x="368" y="-104" type="curve" smooth="yes"/>
      <point x="368" y="-67"/>
      <point x="391.619" y="-24"/>
      <point x="430" y="0" type="curve"/>
      <point x="370.709" y="3" type="line"/>
      <point x="274.236" y="-14"/>
      <point x="226" y="-53"/>
      <point x="226" y="-105" type="curve" smooth="yes"/>
      <point x="226" y="-158"/>
      <point x="277.25" y="-196"/>
      <point x="356.637" y="-206" type="curve"/>
    </contour>
  </outline>
</glyph>
<glyph name="epsilon.ss10" format="2">
  <advance width="480"/>
  <anchor x="240" y="519" name="topgr"/>
  <outline>
    <contour>
      <point x="366" y="208" type="curve"/>
      <point x="366" y="308" type="line"/>
      <point x="262" y="308"/>
      <point x="229" y="321"/>
      <point x="229" y="356" type="curve" smooth="yes"/>
      <point x="229" y="377"/>
      <point x="246.24" y="390"/>
      <point x="278.566" y="390" type="curve" smooth="yes"/>
      <point x="328.132" y="390"/>
      <point x="368" y="358"/>
      <point x="418" y="280" type="curve"/>
      <point x="461" y="430" type="line"/>
      <point x="433" y="470"/>
      <point x="356.062" y="520"/>
      <point x="237.065" y="520" type="curve" smooth="yes"/>
      <point x="112.938" y="520"/>
      <point x="36" y="475"/>
      <point x="36" y="387" type="curve" smooth="yes"/>
      <point x="36" y="334"/>
      <point x="63" y="279.656"/>
      <point x="213" y="260" type="curve"/>
      <point x="65" y="251.333"/>
      <point x="19" y="208"/>
      <point x="19" y="133" type="curve" smooth="yes"/>
      <point x="19" y="33"/>
      <point x="104.054" y="-20"/>
      <point x="237.272" y="-20" type="curve" smooth="yes"/>
      <point x="356.144" y="-20"/>
      <point x="433" y="30"/>
      <point x="461" y="70" type="curve"/>
      <point x="418" y="220" type="line"/>
      <point x="368" y="142"/>
      <point x="328.466" y="110"/>
      <point x="271.836" y="110" type="curve" smooth="yes"/>
      <point x="234.438" y="110"/>
      <point x="212" y="124"/>
      <point x="212" y="152" type="curve" smooth="yes"/>
      <point x="212" y="193"/>
      <point x="247" y="208"/>
    </contour>
  </outline>
</glyph>
<glyph name="g.ss12" format="2">
  <advance width="606"/>
  <anchor x="279" y="-220" name="bottom"/>
  <anchor x="288" y="520" name="top"/>
  <outline>
    <contour>
      <point x="234" y="-20" type="curve" smooth="yes"/>
      <point x="338" y="-20"/>
      <point x="395" y="85"/>
      <point x="395" y="255" type="curve" smooth="yes"/>
      <point x="395" y="424"/>
      <point x="339" y="520"/>
      <point x="233" y="520" type="curve" smooth="yes"/>
      <point x="94" y="520"/>
      <point x="20" y="411"/>
      <point x="20" y="255" type="curve" smooth="yes"/>
      <point x="20" y="99"/>
      <point x="95" y="-20"/>
    </contour>
    <contour>
      <point x="287" y="106" type="curve" smooth="yes"/>
      <point x="234" y="106"/>
      <point x="210" y="165"/>
      <point x="210" y="254" type="curve" smooth="yes"/>
      <point x="210" y="340"/>
      <point x="233" y="393"/>
      <point x="288" y="393" type="curve" smooth="yes"/>
      <point x="336" y="393"/>
      <point x="363" y="340"/>
      <point x="363" y="255" type="curve" smooth="yes"/>
      <point x="363" y="167"/>
      <point x="333" y="106"/>
    </contour>
    <contour>
      <point x="44" y="-131" type="line"/>
      <point x="93" y="-185"/>
      <point x="169" y="-220"/>
      <point x="260" y="-220" type="curve" smooth="yes"/>
      <point x="455" y="-220"/>
      <point x="553" y="-129"/>
      <point x="553" y="32" type="curve" smooth="yes"/>
      <point x="553" y="500" type="line"/>
      <point x="363" y="500" type="line"/>
      <point x="363" y="41" type="line" smooth="yes"/>
      <point x="363" y="-49"/>
      <point x="324" y="-90"/>
      <point x="240" y="-90" type="curve" smooth="yes"/>
      <point x="171" y="-90"/>
      <point x="123" y="-67"/>
      <point x="55" y="-15" type="curve"/>
    </contour>
  </outline>
</glyph>
<glyph name="one.osf.ss09" format="2">
  <advance width="544"/>
  <outline>
    <contour>
      <point x="182" y="0" type="line"/>
      <point x="372" y="0" type="line"/>
      <point x="372" y="550" type="line"/>
      <point x="187" y="550" type="line"/>
      <point x="187" y="466"/>
      <point x="125.8" y="410"/>
      <point x="34" y="410" type="curve"/>
      <point x="34" y="270" type="line"/>
      <point x="122.8" y="270"/>
      <point x="182" y="310.4"/>
      <point x="182" y="371" type="curve"/>
    </contour>
    <contour>
      <point x="34" y="0" type="line"/>
      <point x="510" y="0" type="line"/>
      <point x="510" y="140" type="line"/>
      <point x="34" y="140" type="line"/>
    </contour>
  </outline>
</glyph>
<glyph name="one.ss09" format="2">
  <advance width="514"/>
  <outline>
    <contour>
      <point x="172" y="0" type="line"/>
      <point x="362" y="0" type="line"/>
      <point x="362" y="700" type="line"/>
      <point x="177" y="700" type="line"/>
      <point x="177" y="616"/>
      <point x="115.8" y="560"/>
      <point x="24" y="560" type="curve"/>
      <point x="24" y="420" type="line"/>
      <point x="112.8" y="420"/>
      <point x="172" y="460.4"/>
      <point x="172" y="521" type="curve"/>
    </contour>
    <contour>
      <point x="24" y="0" type="line"/>
      <point x="500" y="0" type="line"/>
      <point x="500" y="140" type="line"/>
      <point x="24" y="140" type="line"/>
    </contour>
  </outline>
</glyph>
<glyph name="scedilla.ss09" format="2">
  <advance width="490"/>
  <anchor x="235" y="520" name="top"/>
  <anchor x="235" y="-218" name="bottom"/>
  <outline>
    <contour>
      <point x="20" y="150" type="line"/>
      <point x="30" y="31.302"/>
      <point x="128" y="-20"/>
      <point x="249" y="-20" type="curve" smooth="yes"/>
      <point x="383" y="-20"/>
      <point x="464" y="42.235"/>
      <point x="464" y="147.935" type="curve" smooth="yes"/>
      <point x="464" y="240.794"/>
      <point x="399.604" y="305.37"/>
      <point x="253.008" y="323" type="curve" smooth="yes"/>
      <point x="233.301" y="325.37"/>
      <point x="200" y="328.227"/>
      <point x="200" y="360.739" type="curve" smooth="yes"/>
      <point x="200" y="379.163"/>
      <point x="212.549" y="390"/>
      <point x="236.507" y="390" type="curve" smooth="yes"/>
      <point x="266.169" y="390"/>
      <point x="277.577" y="372.564"/>
      <point x="281" y="350" type="curve"/>
      <point x="464" y="350" type="line"/>
      <point x="457" y="460.651"/>
      <point x="358" y="520"/>
      <point x="237" y="520" type="curve" smooth="yes"/>
      <point x="111" y="520"/>
      <point x="20" y="455.784"/>
      <point x="20" y="350.074" type="curve" smooth="yes"/>
      <point x="20" y="259.183"/>
      <point x="88.602" y="192.254"/>
      <point x="217.422" y="180" type="curve" smooth="yes"/>
      <point x="267.322" y="175.253"/>
      <point x="286" y="163.07"/>
      <point x="286" y="138.159" type="curve" smooth="yes"/>
      <point x="286" y="117.581"/>
      <point x="271.219" y="110"/>
      <point x="249.616" y="110" type="curve" smooth="yes"/>
      <point x="221.192" y="110"/>
      <point x="203" y="124.342"/>
      <point x="203" y="150" type="curve"/>
    </contour>
    <contour>
      <point x="103" y="-205" type="line"/>
      <point x="125" y="-211"/>
      <point x="158" y="-218"/>
      <point x="211" y="-218" type="curve" smooth="yes"/>
      <point x="314" y="-218"/>
      <point x="363" y="-191"/>
      <point x="363" y="-134" type="curve" smooth="yes"/>
      <point x="363" y="-87"/>
      <point x="330" y="-64"/>
      <point x="262" y="-64" type="curve"/>
      <point x="309.423" y="20.41" type="line"/>
      <point x="207.423" y="20.41" type="line"/>
      <point x="139" y="-109" type="line"/>
      <point x="155" y="-107"/>
      <point x="180" y="-105"/>
      <point x="197" y="-105" type="curve" smooth="yes"/>
      <point x="227" y="-105"/>
      <point x="243" y="-111"/>
      <point x="243" y="-133" type="curve" smooth="yes"/>
      <point x="243" y="-151"/>
      <point x="232" y="-164"/>
      <point x="195" y="-164" type="curve" smooth="yes"/>
      <point x="174" y="-164"/>
      <point x="145" y="-160"/>
      <point x="129" y="-154" type="curve"/>
    </contour>
  </outline>
</glyph>
<glyph name="six.osf.ss10" format="2">
  <advance width="667"/>
  <outline>
    <contour>
      <point x="239" y="225" type="curve" smooth="yes"/>
      <point x="239" y="285"/>
      <point x="272" y="326"/>
      <point x="340" y="326" type="curve" smooth="yes"/>
      <point x="406" y="326"/>
      <point x="434" y="288"/>
      <point x="434" y="228" type="curve" smooth="yes"/>
      <point x="434" y="163"/>
      <point x="401" y="121"/>
      <point x="338" y="121" type="curve" smooth="yes"/>
      <point x="274" y="121"/>
      <point x="239" y="164"/>
    </contour>
    <contour>
      <point x="623.01" y="578" type="line"/>
      <point x="564.95" y="664"/>
      <point x="469.11" y="720"/>
      <point x="349" y="720" type="curve" smooth="yes"/>
      <point x="157" y="720"/>
      <point x="38" y="577"/>
      <point x="38" y="346" type="curve" smooth="yes"/>
      <point x="38" y="118"/>
      <point x="156" y="-20"/>
      <point x="350" y="-20" type="curve" smooth="yes"/>
      <point x="520" y="-20"/>
      <point x="625" y="88"/>
      <point x="625" y="226" type="curve" smooth="yes"/>
      <point x="625" y="363"/>
      <point x="520" y="459"/>
      <point x="368" y="459" type="curve" smooth="yes"/>
      <point x="303.41" y="459"/>
      <point x="249.52" y="441.62"/>
      <point x="210.7" y="415.06" type="curve"/>
      <point x="218.44" y="521.91"/>
      <point x="267.95" y="580"/>
      <point x="364.37" y="580" type="curve" smooth="yes"/>
      <point x="431.25" y="580"/>
      <point x="506.13" y="534.72"/>
      <point x="578.01" y="414" type="curve"/>
    </contour>
  </outline>
</glyph>
<glyph name="tcedilla.ss11" format="2">
  <advance width="353"/>
  <anchor x="158" y="630" name="top"/>
  <anchor x="282" y="700" name="topright"/>
  <anchor x="139" y="-218" name="bottom"/>
  <outline>
    <contour>
      <point x="62" y="0" type="line"/>
      <point x="252" y="0" type="line"/>
      <point x="252" y="370" type="line"/>
      <point x="350" y="370" type="line"/>
      <point x="350" y="500" type="line"/>
      <point x="252" y="500" type="line"/>
      <point x="252" y="620" type="line"/>
      <point x="62" y="620" type="line"/>
      <point x="62" y="500" type="line"/>
      <point x="4" y="500" type="line"/>
      <point x="4" y="370" type="line"/>
      <point x="62" y="370" type="line"/>
    </contour>
    <contour>
      <point x="7" y="-205" type="line"/>
      <point x="29" y="-211"/>
      <point x="62" y="-218"/>
      <point x="115" y="-218" type="curve" smooth="yes"/>
      <point x="218" y="-218"/>
      <point x="267" y="-191"/>
      <point x="267" y="-134" type="curve" smooth="yes"/>
      <point x="267" y="-87"/>
      <point x="234" y="-64"/>
      <point x="166" y="-64" type="curve"/>
      <point x="213.423" y="20.41" type="line"/>
      <point x="111.423" y="20.41" type="line"/>
      <point x="43" y="-109" type="line"/>
      <point x="59" y="-107"/>
      <point x="84" y="-105"/>
      <point x="101" y="-105" type="curve" smooth="yes"/>
      <point x="131" y="-105"/>
      <point x="147" y="-111"/>
      <point x="147" y="-133" type="curve" smooth="yes"/>
      <point x="147" y="-151"/>
      <point x="136" y="-164"/>
      <point x="99" y="-164" type="curve" smooth="yes"/>
      <point x="78" y="-164"/>
      <point x="49" y="-160"/>
      <point x="33" y="-154" type="curve"/>
    </contour>
  </outline>
</glyph>
